<svg xmlns="http://www.w3.org/2000/svg" xmlns:xlink="http://www.w3.org/1999/xlink" width="587" height="382"><style>text{font-family:&apos;Consolas&apos;,&apos;Menlo&apos;,&apos;DejaVu Sans Mono&apos;,&apos;Bitstream Vera Sans Mono&apos;,monospace;dominant-baseline:middle;text-anchor:middle;fill:#062886;font-size:medium;alignment-baseline:center}ellipse.fixture,rect.test{fill:#efc;stroke:#007020;stroke-width:2}text.fixture{color:#06287e}circle.module,circle.package,circle.plugin,line,path{fill:#c3e0ec;stroke:#0e84b5;stroke-width:2}line,path{stroke:#000;fill:none}text.module,text.package,text.plugin{fill:#0e84b5}</style><circle cx="486" cy="86" r="85" class="plugin"/><defs><path id="pluginA" d="M 411,86 A 75 75 0 0 1 561 86"/></defs><text class="plugin"><textPath startOffset="50%" xlink:href="#pluginA">plugin_a</textPath></text><mask id="pluginAOrderMask"><rect width="100%" height="100%" x="0" y="0" fill="#fff"/><circle cx="486" cy="86" r="85" fill="#000" stroke="#fff" stroke-width="2"/></mask><circle cx="571" cy="86" r="15" class="module" mask="url(#pluginAOrderMask)"/><text x="571" y="86" class="module">4</text><circle cx="486" cy="296" r="85" class="plugin"/><defs><path id="pluginB" d="M 411,296 A 75 75 0 0 1 561 296"/></defs><text class="plugin"><textPath startOffset="50%" xlink:href="#pluginB">plugin_b</textPath></text><mask id="pluginBOrderMask"><rect width="100%" height="100%" x="0" y="0" fill="#fff"/><circle cx="486" cy="296" r="85" fill="#000" stroke="#fff" stroke-width="2"/></mask><circle cx="571" cy="296" r="15" class="module" mask="url(#pluginBOrderMask)"/><text x="571" y="296" class="module">4</text><circle cx="191" cy="191" r="190" class="package"/><defs><path id="testp" d="M 11,191 A 180 180 0 0 1 371 191"/></defs><text class="package"><textPath startOffset="50%" xlink:href="#testp">tests</textPath></text><mask id="mainOrderMask"><rect width="100%" height="100%" x="0" y="0" fill="#fff"/><circle cx="191" cy="191" r="190" fill="#000" stroke="#fff" stroke-width="2"/></mask><circle cx="381" cy="191" r="15" class="module" mask="url(#mainOrderMask)"/><text x="381" y="191" class="module">3</text><circle cx="191" cy="231" r="140" class="package"/><defs><path id="subpackage" d="M 61,231 A 130 130 0 0 1 321 231"/></defs><text class="package"><textPath startOffset="50%" xlink:href="#subpackage">subpackage</textPath></text><mask id="subpackageOrderMask"><rect width="100%" height="100%" x="0" y="0" fill="#fff"/><circle cx="191" cy="231" r="140" fill="#000" stroke="#fff" stroke-width="2"/></mask><circle cx="331" cy="231" r="15" class="module" mask="url(#subpackageOrderMask)"/><text x="331" y="231" class="module">2</text><circle cx="191" cy="271" r="90" class="module"/><defs><path id="testSubpackage" d="M 111,271 A 80 80 0 0 1 271 271"/></defs><text class="module"><textPath startOffset="50%" xlink:href="#testSubpackage">test_subpackage.py</textPath></text><mask id="testSubpackageOrderMask"><rect width="100%" height="100%" x="0" y="0" fill="#fff"/><circle cx="191" cy="271" r="90" fill="#000" stroke="#fff" stroke-width="2"/></mask><circle cx="281" cy="271" r="15" class="module" mask="url(#testSubpackageOrderMask)"/><text x="281" y="271" class="module">1</text><line x1="191" x2="191" y1="231" y2="311"/><path d="M 191 306 L 101 306 L 91 296 L 91 156 L 101 146 L 191 146"/><path d="M 191 316 L 91 316 L 81 306 L 81 61 L 91 51 L 191 51"/><path d="M 191 306 L 291 306 L 301 296 L 301 96 L 311 86 L 486 86"/><path d="M 191 316 L 316 316 L 336 296 L 486 296"/><ellipse cx="191" cy="231" class="fixture" rx="50" ry="25"/><text x="191" y="231">inner</text><rect width="110" height="50" x="136" y="286" class="test"/><text x="191" y="311">test_order</text><ellipse cx="191" cy="146" class="fixture" rx="50" ry="25"/><text x="191" y="146">mid</text><ellipse cx="191" cy="51" class="fixture" rx="50" ry="25"/><text x="191" y="51">order</text><ellipse cx="486" cy="86" class="fixture" rx="50" ry="25"/><text x="486" y="86">a_fix</text><ellipse cx="486" cy="296" class="fixture" rx="50" ry="25"/><text x="486" y="296">b_fix</text></svg>