<svg xmlns="http://www.w3.org/2000/svg" xmlns:xlink="http://www.w3.org/1999/xlink" width="572" height="542"><style>text{font-family:&apos;Consolas&apos;,&apos;Menlo&apos;,&apos;DejaVu Sans Mono&apos;,&apos;Bitstream Vera Sans Mono&apos;,monospace;dominant-baseline:middle;text-anchor:middle;fill:#062886;font-size:medium}ellipse.fixture,rect.test{fill:#efc;stroke:#007020;stroke-width:2}text.fixture{color:#06287e}circle.module,circle.package,line,path{fill:#c3e0ec;stroke:#0e84b5;stroke-width:2}line,path{stroke:#000;fill:none}text.module,text.package{fill:#0e84b5}</style><circle cx="286" cy="271" r="270" class="package"/><defs><path id="testp" d="M 26,271 A 260 260 0 0 1 546 271"/></defs><text class="package"><textPath startOffset="50%" xlink:href="#testp">tests</textPath></text><circle cx="186" cy="271" r="140" class="package"/><defs><path id="subpackage" d="M 56,271 A 130 130 0 0 1 316 271"/></defs><text class="package"><textPath startOffset="50%" xlink:href="#subpackage">subpackage</textPath></text><circle cx="186" cy="311" r="90" class="module"/><defs><path id="testSubpackage" d="M 106,311 A 80 80 0 0 1 266 311"/></defs><text class="module"><textPath startOffset="50%" xlink:href="#testSubpackage">test_subpackage.py</textPath></text><line x1="186" x2="186" y1="271" y2="351"/><path d="M 186 351 L 136 351 L 106 331 L 106 196"/><path d="M 186 351 L 256 351 L 316 291 L 316 136"/><path d="M 186 351 L 186 391 L 231 436 L 331 436"/><ellipse cx="186" cy="271" class="fixture" rx="50" ry="25"/><text x="186" y="271">innermost</text><rect width="110" height="50" x="131" y="326" class="test"/><text x="186" y="351">test_order</text><ellipse cx="126" cy="196" class="fixture" rx="50" ry="25"/><text x="126" y="196">mid</text><mask id="testSubpackageOrderMask"><rect width="100%" height="100%" x="0" y="0" fill="#fff"/><circle cx="186" cy="311" r="90" fill="#000" stroke="#fff" stroke-width="2"/></mask><circle cx="96" cy="311" r="15" class="module" mask="url(#testSubpackageOrderMask)"/><text x="96" y="311" class="module">1</text><mask id="subpackageOrderMask"><rect width="100%" height="100%" x="0" y="0" fill="#fff"/><circle cx="186" cy="271" r="140" fill="#000" stroke="#fff" stroke-width="2"/></mask><circle cx="46" cy="271" r="15" class="module" mask="url(#subpackageOrderMask)"/><text x="46" y="271" class="module">2</text><mask id="testsOrderMask"><rect width="100%" height="100%" x="0" y="0" fill="#fff"/><circle cx="286" cy="271" r="270" fill="#000" stroke="#fff" stroke-width="2"/></mask><circle cx="16" cy="271" r="15" class="module" mask="url(#testsOrderMask)"/><text x="16" y="271" class="module">3</text><circle cx="441" cy="271" r="85" class="module"/><defs><path id="testTop" d="M 366,271 A 75 75 0 0 1 516 271"/></defs><text class="module"><textPath startOffset="50%" xlink:href="#testTop">test_top.py</textPath></text><line x1="441" x2="441" y1="306" y2="236"/><path d="M 441 306 L 376 306 L 346 276 L 346 136"/><path d="M 441 306 L 441 411 L 411 436 L 331 436"/><ellipse cx="441" cy="236" class="fixture" rx="50" ry="25"/><text x="441" y="236">innermost</text><rect width="110" height="50" x="386" y="281" class="test"/><text x="441" y="306">test_order</text><mask id="testTopOrderMask"><rect width="100%" height="100%" x="0" y="0" fill="#fff"/><circle cx="441" cy="271" r="85" fill="#000" stroke="#fff" stroke-width="2"/></mask><circle cx="526" cy="271" r="15" class="module" mask="url(#testTopOrderMask)"/><text x="526" y="271" class="module">1</text><circle cx="556" cy="271" r="15" class="module" mask="url(#testsOrderMask)"/><text x="556" y="271" class="module">2</text><ellipse cx="331" cy="436" class="fixture" rx="50" ry="25"/><text x="331" y="436">top</text><ellipse cx="331" cy="136" class="fixture" rx="50" ry="25"/><text x="331" y="136">order</text></svg>